HIERARCHY
ROOT Hips
{
     OFFSET 1.88212 96.90440 -13.34250
     CHANNELS 6 Xposition Yposition Zposition Zrotation Xrotation Yrotation
     JOINT Spine
     {
          OFFSET 0.00000 11.89050 0.00000
          CHANNELS 3 Zrotation Xrotation Yrotation
          JOINT Spine1
          {
               OFFSET -0.00000 25.65740 0.12766
               CHANNELS 3 Zrotation Xrotation Yrotation
               JOINT HEad
               {
                    OFFSET 0.00000 8.73416 0.01134
                    CHANNELS 3 Zrotation Xrotation Yrotation
                    End Site
                    {
                         OFFSET -0.29000 12.77420 2.51395
                    }
               }
               JOINT LeftShoulder1
               {
                    OFFSET 8.99000 -0.36225 -0.22000
                    CHANNELS 3 Zrotation Xrotation Yrotation
                    JOINT LeftArm
                    {
                         OFFSET 10.28270 -0.00338 0.32212
                         CHANNELS 3 Zrotation Xrotation Yrotation
                         JOINT LeftForeArm
                         {
                              OFFSET 32.76690 0.09914 -1.42434
                              CHANNELS 3 Zrotation Xrotation Yrotation
                              JOINT LeftHand
                              {
                                   OFFSET 27.56430 0.08536 1.02216
                                   CHANNELS 3 Zrotation Xrotation Yrotation
                                   End Site
                                   {
                                        OFFSET 16.74430 -0.60000 1.50291
                                   }
                              }
                         }
                    }
               }
               JOINT RightShoulder
               {
                    OFFSET -8.99000 -0.36225 -0.22000
                    CHANNELS 3 Zrotation Xrotation Yrotation
                    JOINT RightArm
                    {
                         OFFSET -10.28270 -0.00338 0.32212
                         CHANNELS 3 Zrotation Xrotation Yrotation
                         JOINT RightForeArm
                         {
                              OFFSET -32.89710 0.09914 -1.42434
                              CHANNELS 3 Zrotation Xrotation Yrotation
                              JOINT RightHand
                              {
                                   OFFSET -27.49210 0.08536 1.02216
                                   CHANNELS 3 Zrotation Xrotation Yrotation
                                   End Site
                                   {
                                        OFFSET -16.63120 -0.60000 1.50291
                                   }
                              }
                         }
                    }
               }
          }
     }
     JOINT LeftUpLeg
     {
          OFFSET 8.94580 -8.66707 0.10165
          CHANNELS 3 Zrotation Xrotation Yrotation
          JOINT LeftLeg
          {
               OFFSET 0.00000 -44.42270 1.37270
               CHANNELS 3 Zrotation Xrotation Yrotation
               JOINT LeftFoot
               {
                    OFFSET -0.25355 -42.09240 -1.46059
                    CHANNELS 3 Zrotation Xrotation Yrotation
                    JOINT LeftToes
                    {
                         OFFSET -0.04000 -4.41509 8.49910
                         CHANNELS 3 Zrotation Xrotation Yrotation
                         End Site
                         {
                              OFFSET 0.08000 -0.04745 9.77979
                         }
                    }
               }
          }
     }
     JOINT RightUpLeg
     {
          OFFSET -8.94580 -8.66707 0.10165
          CHANNELS 3 Zrotation Xrotation Yrotation
          JOINT RightLeg
          {
               OFFSET 0.00000 -44.42270 1.37270
               CHANNELS 3 Zrotation Xrotation Yrotation
               JOINT RightFoot
               {
                    OFFSET 0.25355 -42.09240 -1.46059
                    CHANNELS 3 Zrotation Xrotation Yrotation
                    JOINT RightToes
                    {
                         OFFSET 0.04000 -4.41509 8.49910
                         CHANNELS 3 Zrotation Xrotation Yrotation
                         End Site
                         {
                              OFFSET -0.08000 -0.13745 9.77979
                         }
                    }
               }
          }
     }
}
MOTION
Frames: 20
Frame Time: 0.01667
44.21094 80.42336 -121.76875 0.64292 -8.20393 -27.39912 -10.22438 34.36907 4.20921 -0.04000 0.08840 0.01818 -18.47552 6.56632 19.58694 -19.65267 31.52254 7.86424 -103.89694 -60.17543 -75.83391 -37.77351 55.11247 -96.66120 7.16292 1.78660 1.99711 -13.35759 35.95802 12.56683 73.41658 -23.79266 73.70020 23.59115 43.19243 107.09279 -3.57026 1.98731 -4.74228 9.59946 -26.75698 13.87451 35.80677 34.50774 -20.05282 1.06267 -0.08499 0.06432 -28.50312 -22.61738 3.86721 -20.59230 -29.74185 -15.04630 -27.81242 55.47186 44.51752 15.73950 0.01233 0.11583 -12.52747 -32.20167 -3.06149 
44.67825 76.44875 -122.48985 0.88871 -6.65252 -23.65187 -10.67761 38.71470 1.80026 -0.04203 0.07376 0.01623 -20.40129 4.20349 20.48389 -18.20322 27.49492 6.79842 -101.55427 -59.31347 -73.26883 -35.81251 54.92839 -98.44200 1.71811 6.93838 1.15391 -10.12573 31.71551 11.92948 70.11609 -22.52298 70.04830 20.97657 41.58316 109.49117 -3.97757 5.16627 -2.89737 9.83154 -34.45597 10.46346 38.98420 40.97915 -22.14951 4.17445 -0.07517 0.06107 -35.87631 -16.04909 -4.16683 -23.29205 -35.69188 -18.03056 -38.10917 63.77777 53.07493 18.33785 0.02760 0.09638 -15.74829 -37.50223 -2.95598 
45.16554 72.19710 -123.39658 1.08539 -5.43290 -20.25885 -12.05269 43.50423 1.05692 -0.04041 0.06365 0.01269 -21.25758 1.63176 20.22106 -16.03973 23.44314 5.40279 -99.88873 -58.53009 -72.14119 -34.60305 54.73248 -99.73161 5.56563 5.11856 -1.17008 -5.86006 27.45109 10.54438 67.84845 -21.33484 68.14939 19.36866 40.75452 110.86884 -3.39621 4.67629 -0.66503 9.85272 -43.16025 7.57785 44.62049 48.08767 -27.64451 6.60655 -0.04616 0.05019 -40.17582 -20.37777 -5.42566 -26.90032 -42.00115 -20.25312 -56.13879 71.86768 69.51373 21.14947 0.03230 0.09695 -19.08060 -42.34362 -3.24982 
45.60558 67.78457 -124.46996 1.28265 -4.49034 -17.16535 -14.58220 48.49564 2.08621 -0.04275 0.05355 0.00790 -21.21339 -0.96258 19.08966 -13.27869 19.35219 3.81945 -98.59178 -57.84893 -71.71216 -33.80083 54.69899 -100.97433 2.86968 8.27101 -1.11912 -1.37142 23.09039 9.14964 66.54596 -20.44332 67.21570 18.37432 40.57117 111.95799 -3.84447 6.37287 0.25102 9.77951 -52.52447 5.33504 53.21854 55.18471 -37.27261 8.89311 -0.02872 0.04744 -44.27944 -19.43116 -9.25532 -31.44338 -48.15942 -21.86490 -90.69559 77.14513 102.84215 24.30779 0.04117 0.09434 -22.48382 -46.60797 -3.63578 
45.93741 63.03836 -125.59857 1.50934 -3.78230 -14.29985 -18.63761 53.40106 5.25489 -0.04711 0.04280 0.01231 -20.41825 -3.43368 17.23338 -10.17882 15.29051 2.37673 -97.27335 -56.89160 -71.48717 -33.28489 54.59736 -102.15847 5.71084 6.96579 -2.09861 2.96644 18.74776 8.11199 66.06821 -19.99513 66.93323 20.51286 45.12985 113.07815 -6.40850 9.23875 -0.48884 10.15256 -62.06855 4.22226 65.51780 61.19678 -51.75794 11.32712 -0.01808 0.04703 -48.02795 -21.16433 -11.23627 -36.78388 -53.72524 -22.91967 -133.77765 76.22614 145.19185 27.99498 0.05108 0.09052 -26.40878 -50.06590 -5.33848 
46.08701 58.32852 -126.68690 1.75925 -3.27825 -11.65904 -24.75178 57.84865 11.02907 -0.05053 0.03339 0.00988 -18.96481 -5.72053 14.87704 -6.57827 11.32422 0.89788 -96.13597 -55.89995 -71.35599 -32.92230 54.46797 -103.48642 4.18954 9.05410 -1.50851 7.40538 14.47597 7.02142 65.92191 -19.68493 67.06406 21.94113 47.70705 113.88612 -8.46666 12.34327 -1.11460 12.56131 -71.08965 5.72449 80.65331 65.16144 -70.09924 14.07867 -0.01034 0.04216 -50.90233 -21.49671 -13.22028 -42.35766 -58.37921 -23.10930 -159.55228 71.25031 170.76575 32.10909 0.05835 0.07722 -30.61745 -53.14427 -6.93797 
46.03259 53.78329 -127.58847 2.01571 -2.95469 -9.23820 -33.44033 61.32948 19.85739 -0.05642 0.02000 0.00556 -16.88749 -7.76394 12.20935 -2.51903 7.51016 -0.49972 -95.05109 -54.90486 -71.18211 -32.82520 54.22631 -104.90769 5.81596 8.40357 -1.76003 12.00645 10.39322 5.89193 65.91903 -19.49886 67.36149 22.97318 49.05723 114.60732 4.37813 1.86890 7.51212 21.52765 -78.73409 14.20041 95.41346 67.14571 -88.76328 17.18221 -0.00610 0.02956 -53.33033 -21.90492 -14.11892 -47.30178 -61.89668 -21.79538 -172.86212 65.70299 184.41335 36.75575 0.06824 0.06869 -35.36599 -55.83107 -9.28418 
45.89178 49.46167 -128.12935 2.29671 -2.80209 -7.00199 -44.23873 63.08230 31.33327 -0.05673 -0.01521 0.00518 -14.59255 -10.71601 9.25100 -8.55396 2.28755 3.45724 -81.87779 -48.77840 -69.27390 -33.32273 53.46656 -105.33324 5.07828 9.82456 -0.95806 8.86551 7.25405 13.40699 71.09953 -25.19119 67.90427 23.52596 46.74913 114.12621 -3.78167 11.31278 -0.43126 51.61718 -83.62474 44.16178 107.26081 68.15042 -104.87986 20.57617 -0.00661 0.01346 -55.27483 -21.98697 -14.43925 -50.19665 -64.18666 -17.92952 -178.01161 60.81855 189.31558 43.39841 0.17652 0.05715 -69.52443 -57.12914 -41.19829 
45.65500 45.76640 -128.36966 2.62724 -2.82458 -4.94837 -53.06668 63.43955 41.03729 0.04430 -0.04986 -0.03737 -13.21161 -14.10543 6.52844 -4.11733 0.33125 1.66740 -82.70361 -47.90611 -70.29194 -33.91036 52.60382 -105.75858 5.67859 9.44830 -0.84018 13.63891 4.67484 10.36034 67.15730 -20.55575 71.44278 23.82556 42.79619 112.95457 0.55494 5.68483 3.51595 96.44099 -83.43860 89.13961 115.67989 69.23019 -117.54539 24.11000 -0.00902 -0.00149 -56.81272 -21.59450 -14.33728 -50.15903 -65.02441 -11.16275 -183.01720 57.41826 194.12950 49.56213 0.15554 0.01254 -57.87174 -60.58721 -26.35133 
45.41995 42.79748 -128.30981 3.00333 -3.00762 -3.05933 -59.29456 62.98490 48.24095 0.04323 -0.04303 -0.03814 -12.35781 -17.83544 3.78025 -0.70262 -0.97778 0.21021 -83.23795 -47.08158 -71.18609 -34.35910 51.79853 -106.26476 4.96999 10.29113 -0.01037 17.17651 2.83430 7.95624 64.76237 -18.09986 73.17492 23.55079 41.00391 113.99751 -4.54318 11.19869 -1.64586 113.31102 -80.94817 106.33054 121.98296 70.84958 -127.70763 27.58915 -0.01052 -0.01024 -57.77373 -21.11517 -13.84064 -48.24236 -64.45677 -3.05140 -186.56184 54.79067 197.59181 55.66749 0.15978 0.01530 -67.40574 -62.20911 -33.64877 
45.43869 40.65845 -127.90384 3.42572 -3.32495 -1.29527 -62.96925 62.12636 52.93256 0.03667 -0.04013 -0.03725 -11.88584 -21.78048 0.94972 1.66425 -1.88904 -0.64213 -88.03643 -44.67528 -77.45919 -37.07575 52.11547 -101.34264 5.16110 10.29266 -0.15782 11.46118 -3.69954 13.00067 70.38544 -21.87176 67.09531 20.98776 44.23284 120.77869 6.81330 5.72959 10.77470 116.01530 -78.94263 109.54723 128.03476 72.82117 -136.91354 30.92610 -0.00967 -0.00928 -58.53627 -20.94304 -13.43843 -46.00554 -62.54568 4.54947 -188.96854 53.13183 199.93716 61.55978 0.15950 0.00348 -66.42684 -64.41600 -29.39890 
45.64532 39.28677 -127.34387 3.91536 -3.77333 0.35760 -64.62065 61.16016 55.56483 0.03361 -0.02975 -0.03086 -11.62793 -25.99496 -1.94015 3.40263 -2.29549 -1.53471 -90.62178 -42.83352 -80.85101 -32.86742 49.28461 -105.89894 13.65033 20.02745 -9.64681 14.32437 -3.55782 10.83048 70.40697 -21.39756 72.23405 23.47539 46.00989 119.50848 -3.60786 9.32779 -5.71739 113.69293 -77.85053 107.89754 135.07707 74.74634 -146.32808 33.97347 -0.00473 -0.00313 -58.76316 -20.69187 -12.99551 -44.32349 -59.50013 10.60159 -190.54617 52.47245 201.28044 67.11458 0.14567 -0.01114 -71.19999 -66.33495 -31.15772 
46.12663 38.57528 -126.62523 4.47204 -4.32865 1.88150 -64.76211 60.18312 56.57678 0.02782 -0.02099 -0.02830 -11.37273 -30.48922 -4.84041 4.73894 -2.22065 -2.54253 -92.10393 -41.46051 -82.78876 -30.38148 47.85088 -108.29724 1.87684 6.82225 3.65693 16.77112 -3.17611 8.95759 70.29870 -21.23592 75.15901 24.97870 47.38575 119.41975 0.07520 7.86548 2.16160 108.53336 -77.46139 103.58482 148.43990 75.39900 -161.14810 37.56946 0.01629 0.04503 -59.04905 -22.08877 -13.39257 -43.44660 -55.65536 14.80152 -191.48820 52.75097 201.68242 72.27808 0.12331 -0.02355 -72.99561 -68.15415 -29.43034 
47.18735 38.68333 -125.67632 5.06022 -4.98699 3.21238 -61.67163 58.64655 54.20418 0.03987 -0.11325 -0.05203 -10.68915 -33.93525 -6.96687 5.36633 -0.67146 -3.11594 -95.43584 -38.60752 -88.51591 -31.19250 47.44174 -104.33215 17.83957 18.61340 -21.45199 18.98935 -1.38715 7.32310 72.52588 -22.15032 80.85820 30.83132 49.27578 113.67781 -6.17506 10.48012 -6.01432 100.32395 -77.63734 96.48677 162.12854 74.54708 -175.37801 41.27052 0.04582 0.07258 -59.43148 -24.14814 -14.21723 -43.41265 -51.24629 17.24953 -193.34343 55.13219 201.41011 76.67741 0.06057 -0.09152 -72.60115 -68.34540 -25.45712 
48.61486 39.19369 -124.63601 5.63992 -5.72316 4.33056 -56.27104 56.61271 49.21920 0.05467 -0.09749 -0.05757 -9.37563 -36.64931 -8.27079 5.12169 2.15714 -3.36884 -99.14143 -34.72394 -95.89918 -33.66785 47.73969 -96.71516 6.60121 15.35392 -18.19614 20.89373 1.63237 6.04246 76.69620 -23.67319 88.08547 39.82866 51.53296 104.32230 1.66177 22.28104 10.90161 88.83035 -78.10037 86.34028 170.76154 74.15024 -183.88753 44.16266 0.03771 0.03525 -59.70287 -25.82169 -14.78882 -44.10861 -46.62301 18.14723 -195.59042 58.88408 200.84187 80.40092 0.00446 -0.10178 -70.62285 -67.38807 -19.66818 
50.43845 40.06662 -123.55580 6.16352 -6.49960 5.21875 -49.54206 54.09163 42.51554 0.06481 -0.06401 -0.05775 -7.26017 -38.68262 -8.68746 4.39524 5.90395 -3.16521 -101.12354 -32.62954 -99.52894 -35.35947 48.22863 -92.84032 12.49244 15.81684 -15.39785 21.79055 5.56251 5.39400 79.24602 -24.61893 91.80423 36.89988 52.65704 107.07750 -2.05022 16.11052 -1.98399 74.05280 -78.48058 73.11884 177.05573 74.10469 -189.37021 46.56893 0.02491 0.02555 -59.93896 -27.22490 -15.33174 -45.34793 -42.02120 17.76893 -197.86720 63.62237 200.42377 83.56942 -0.02761 -0.08536 -69.07957 -65.49523 -14.74021 
52.93078 41.59967 -122.39749 6.54353 -7.27062 5.81483 -42.24652 51.11500 34.80596 0.07188 -0.03140 -0.06091 -4.25291 -39.94456 -8.26099 6.57411 -0.67701 -6.73801 -100.19393 -37.92571 -89.66013 -35.10128 50.90212 -96.82964 6.76438 13.24601 -9.01659 26.60336 -0.49491 5.59332 71.92958 -23.50651 81.76881 27.91035 51.75047 115.65886 -1.17687 9.44324 2.41161 56.12402 -78.38862 56.92833 182.55159 74.32688 -193.25899 48.80119 0.02249 0.02639 -60.01286 -28.66301 -15.68729 -46.84150 -37.35138 16.51104 -200.40536 69.52924 200.79143 86.41012 -0.04932 -0.06663 -68.34144 -62.99285 -10.62804 
55.75989 43.35617 -121.25789 6.74757 -7.98609 6.11123 -34.93931 47.74558 26.57835 0.07353 0.00051 -0.06060 -1.56390 -40.14383 -6.57808 4.56539 4.67760 -5.30393 -101.71954 -37.71099 -91.82327 -35.31115 52.33155 -98.84164 10.54143 13.86851 -4.37035 25.16781 5.19939 5.47234 73.30105 -24.25406 83.47343 23.13337 51.01016 119.91542 -3.92525 4.89864 -5.32824 37.41778 -77.37939 40.11665 187.71335 74.77484 -196.11862 50.91845 0.02416 0.02829 -60.34454 -30.34690 -16.31876 -48.40148 -32.65632 14.58862 -204.55681 76.48804 203.45065 88.90548 -0.06186 -0.04610 -69.19638 -59.27483 -8.90316 
58.93674 45.32926 -120.09283 6.72788 -8.59416 6.09393 -28.00063 44.11724 18.16778 0.06661 0.03521 -0.05987 0.97247 -39.63815 -3.61979 1.67672 9.52887 -3.07167 -102.81564 -38.00582 -93.28374 -35.72473 53.16874 -99.61868 7.01210 11.89003 -2.69156 23.17406 10.73949 6.39840 77.15991 -27.61774 87.06956 26.25878 53.23691 117.86605 -5.53114 22.11124 2.86911 21.01285 -75.31735 25.69433 192.76091 75.47685 -198.30763 52.90139 0.02641 0.02958 -60.73373 -32.18101 -16.96793 -49.87828 -27.96403 12.10915 -218.64236 84.24071 216.73494 91.10132 -0.06716 -0.02949 -70.75510 -54.65001 -8.08462 
62.69792 47.90472 -118.77957 5.31144 -8.80003 3.88108 -21.66145 39.30104 11.64193 0.05343 0.04991 -0.05069 4.14395 -37.46025 -0.11076 4.82692 6.33361 -7.65420 -106.51284 -46.95520 -87.51365 -36.34959 53.82349 -100.17987 8.95780 12.09982 -1.39847 26.35950 6.22539 2.78985 73.11068 -25.48352 82.05552 28.01196 53.41813 114.71944 -3.05502 2.40867 -2.14197 14.32558 -72.25338 20.18493 198.47418 76.57406 -200.65012 54.77762 0.02902 0.03101 -61.21291 -34.27944 -17.71930 -49.64689 -24.69220 10.06595 -340.64594 85.24866 338.25800 90.07735 0.03472 0.00295 -69.69251 -48.31277 -7.75041 
